<svg xmlns="http://www.w3.org/2000/svg" width="148.734" height="62.312" viewBox="0 0 148.734 62.312">
  <g id="Group_1" data-name="Group 1" transform="translate(-1945.169 -481.379)">
    <path id="Path_972" data-name="Path 972" d="M-79.708,0V-12.885h3.894L-73.477-4.1l2.312-8.789h3.9V0H-69.68V-10.143L-72.237,0h-2.5l-2.549-10.143V0Zm14.95,0V-12.885h2.6V0Zm5.106,0V-12.885h2.531l5.273,8.6v-8.6h2.417V0h-2.61l-5.194-8.4V0Zm12.964-12.885h4.755a9.285,9.285,0,0,1,2.452.246,4.309,4.309,0,0,1,1.942,1.187,5.629,5.629,0,0,1,1.23,2.087,9.509,9.509,0,0,1,.422,3.045,8.468,8.468,0,0,1-.4,2.742A5.681,5.681,0,0,1-37.661-1.3,4.573,4.573,0,0,1-39.489-.272a7.871,7.871,0,0,1-2.3.272h-4.9Zm2.6,2.18v8.534h1.942a7.088,7.088,0,0,0,1.573-.123,2.4,2.4,0,0,0,1.05-.536,2.728,2.728,0,0,0,.681-1.244,8.406,8.406,0,0,0,.264-2.36,7.7,7.7,0,0,0-.264-2.294,2.948,2.948,0,0,0-.738-1.248,2.476,2.476,0,0,0-1.2-.606,11.8,11.8,0,0,0-2.136-.123ZM-33.662,0V-12.885h8.833v2.18h-6.231v3.05h5.379v2.18h-5.379V0ZM-22.7-12.885h2.6v6.979A14.476,14.476,0,0,0-20-3.753a2.087,2.087,0,0,0,.8,1.27A2.771,2.771,0,0,0-17.49-2a2.622,2.622,0,0,0,1.67-.453,1.788,1.788,0,0,0,.677-1.112,14.5,14.5,0,0,0,.114-2.188v-7.128h2.6v6.768a17.389,17.389,0,0,1-.211,3.278,3.628,3.628,0,0,1-.778,1.617,3.93,3.93,0,0,1-1.516,1.05A6.6,6.6,0,0,1-17.411.22a7.136,7.136,0,0,1-2.8-.426,4,4,0,0,1-1.507-1.107,3.55,3.55,0,0,1-.729-1.428,15.648,15.648,0,0,1-.255-3.27ZM-9.615,0V-12.779h2.6V-2.171H-.545V0ZM-99.7,21V8.115h9.554v2.18H-97.1v2.856h6.469v2.171H-97.1v3.507h7.2V21Zm11.971,0V8.115h3.894L-81.5,16.9l2.312-8.789h3.9V21H-77.7V10.857L-80.262,21h-2.5l-2.549-10.143V21ZM-72.7,21V8.115h4.175a15.139,15.139,0,0,1,3.094.193A3.378,3.378,0,0,1-63.58,9.57a4,4,0,0,1,.747,2.509,4.2,4.2,0,0,1-.431,2,3.533,3.533,0,0,1-1.094,1.27,3.771,3.771,0,0,1-1.349.611,14.85,14.85,0,0,1-2.7.185h-1.7V21Zm2.6-10.705v3.656h1.424a6.727,6.727,0,0,0,2.057-.2,1.708,1.708,0,0,0,.813-.633,1.732,1.732,0,0,0,.294-1,1.664,1.664,0,0,0-.413-1.16,1.8,1.8,0,0,0-1.046-.571,12.5,12.5,0,0,0-1.872-.088ZM-60.627,21V8.221h2.6V18.829h6.469V21Zm10.4-6.363a8.2,8.2,0,0,1,.589-3.3,6.064,6.064,0,0,1,1.2-1.767,5.016,5.016,0,0,1,1.666-1.16A7.074,7.074,0,0,1-44,7.9a6.05,6.05,0,0,1,4.557,1.767,6.771,6.771,0,0,1,1.709,4.913,6.748,6.748,0,0,1-1.7,4.882,6,6,0,0,1-4.535,1.762,6.064,6.064,0,0,1-4.57-1.753A6.654,6.654,0,0,1-50.229,14.637Zm2.681-.088a4.828,4.828,0,0,0,1.011,3.318A3.293,3.293,0,0,0-43.972,19a3.265,3.265,0,0,0,2.553-1.121,4.924,4.924,0,0,0,1-3.362,4.845,4.845,0,0,0-.971-3.3,3.286,3.286,0,0,0-2.58-1.09,3.308,3.308,0,0,0-2.593,1.1A4.868,4.868,0,0,0-47.549,14.549ZM-32.317,21V15.577l-4.72-7.462h3.05l3.032,5.1,2.971-5.1h3l-4.737,7.479V21Zm8.622,0V8.115h9.554v2.18h-6.952v2.856h6.469v2.171h-6.469v3.507h7.2V21Zm12.015,0V8.115h5.476a9.372,9.372,0,0,1,3,.347A2.961,2.961,0,0,1-1.705,9.7a3.712,3.712,0,0,1,.563,2.03A3.44,3.44,0,0,1-2,14.123a4.094,4.094,0,0,1-2.549,1.191,6.069,6.069,0,0,1,1.393,1.081A14.685,14.685,0,0,1-1.67,18.486L-.1,21H-3.208l-1.881-2.8A18.187,18.187,0,0,0-6.46,16.3a2,2,0,0,0-.782-.536,4.288,4.288,0,0,0-1.31-.145h-.527V21Zm2.6-7.436h1.925a9.94,9.94,0,0,0,2.338-.158,1.4,1.4,0,0,0,.729-.545,1.678,1.678,0,0,0,.264-.967,1.545,1.545,0,0,0-.347-1.05,1.593,1.593,0,0,0-.98-.505q-.316-.044-1.9-.044h-2.03Z" transform="translate(2094 504.779)" fill="#fff"/>
    <path id="Path_1" data-name="Path 1" d="M262.389,100.521c1.566,1.127,4.347,3.985,7.5,10.153a92.2,92.2,0,0,1,4.325,10.132c1.13,3.283,3.02,2.211,3.02,2.211s5.105-2.558,7.187-4.806a19.434,19.434,0,0,0,3.122-4.5c15.586-30.107,37.257-47.448,38.347-48.187s1.611-2.223,0-3.907-3.541,0-3.541,0c-27.293,16.8-41.7,42.369-41.7,42.369s-1.364-3.821-6.434-9.751-12.73,3.165-12.73,3.165S260.355,99.056,262.389,100.521Z" transform="translate(1684 420.507)" fill="#fff"/>
  </g>
</svg>
